<svg width="2423" height="2239" viewBox="0 0 2423 2239" fill="none" xmlns="http://www.w3.org/2000/svg">
<path d="M1188.74 18.4216C1206.33 10.0725 1225.14 3.83103 1244.35 0.831859C1266.16 -0.140844 1288.13 -0.465079 1310.02 0.993976C1364.02 11.0452 1410.23 43.7929 1449.87 80.2693C1512.86 139.28 1563.69 209.72 1611.44 281.295C1678.25 383.104 1738.89 488.723 1798.48 594.829C1857.09 700.935 1914.73 807.446 1971.97 914.2C2096.33 1148.86 2221.18 1383.53 2329.65 1626.06C2360.46 1694.88 2388.51 1764.99 2410.56 1837.05C2415.02 1864.61 2424.67 1891.93 2421.91 1920.14C2419.72 1932.46 2415.18 1946.24 2403.75 1952.88C2394.02 1959.53 2381.54 1955.15 2370.92 1958.23C2361.68 1964.07 2356.25 1974.53 2346.6 1979.96C2338.17 1981.26 2329.57 1980.53 2321.14 1981.82C2312.55 1988.15 2306.63 1997.79 2297.14 2002.98C2290.17 2005.09 2282.88 2005.25 2275.82 2006.71C2261.07 2006.71 2256.12 2024.05 2243.23 2028.27C2234.56 2029.73 2225.72 2029.08 2216.97 2029.08C2209.34 2037.75 2202.05 2047.97 2190.78 2052.18C2181.7 2053.88 2172.46 2052.83 2163.3 2052.42C2157.14 2061.02 2151.7 2071.31 2141.57 2075.77C2131.76 2077.96 2121.54 2076.58 2111.57 2076.5C2106.22 2084.6 2101.28 2094.98 2090.98 2097.33C2080.77 2098.87 2070.47 2097.57 2060.25 2097.17C2054.9 2106.17 2049.07 2115.57 2040.07 2121.41C2029.04 2123.76 2017.77 2121.73 2006.83 2120.51C2002.69 2127.97 2001.23 2138.43 1993.21 2142.56C1981.29 2144.43 1969.29 2143.21 1957.38 2143.05C1952.84 2151.48 1947.65 2159.58 1942.22 2167.53C1929 2167.77 1915.87 2167.53 1902.65 2166.88C1899.65 2175.47 1895.68 2183.74 1890.9 2191.6C1877.6 2191.44 1864.22 2191.6 1851.17 2188.85C1848.98 2197.6 1847.36 2207.08 1841.12 2214.06C1830.82 2216.89 1819.07 2216.81 1809.5 2211.7C1785.5 2199.71 1766.37 2180.42 1747.73 2161.53C1725.27 2139.08 1702.73 2116.79 1681.9 2092.87C1665.03 2076.26 1652.14 2056.15 1635.28 2039.54C1614.36 2018.87 1595.72 1996.09 1575.29 1975.01C1551.7 1945.99 1523 1921.76 1497.54 1894.36C1485.54 1880.99 1470.87 1870.53 1458.06 1857.96C1431.47 1832.59 1402.12 1810.63 1372.45 1789.07C1333.05 1761.91 1289.19 1738.16 1240.95 1732.41C1207.71 1731.11 1176.58 1746.43 1149.1 1763.53C1099.72 1794.09 1055.7 1832.43 1013.38 1871.91C948.445 1931 887.885 1994.63 825.704 2056.56C801.545 2084.12 775.683 2110.06 749.01 2135.1C724.527 2155.45 703.611 2179.93 677.587 2198.65C654.319 2216.16 629.836 2237.08 599.596 2238.86C587.598 2232.7 582.409 2219.41 576.329 2208.22C563.682 2208.06 550.467 2210.57 538.226 2206.6C532.145 2200.68 529.875 2192.01 526.713 2184.39C513.256 2183.82 499.474 2185.77 486.178 2182.69C479.692 2176.36 475.963 2167.93 471.909 2160.07C460.478 2159.99 448.804 2160.88 437.454 2158.94C429.428 2153.59 426.347 2143.78 420.186 2136.73C408.674 2134.37 396.756 2135.91 385.082 2135.51C378.678 2127.65 372.516 2119.78 366.841 2111.35C357.032 2111.35 347.06 2112.41 337.331 2110.46C327.278 2105.84 321.441 2095.87 315.118 2087.28C306.443 2087.04 297.688 2087.77 289.175 2086.06C277.582 2082.66 271.502 2071.23 262.422 2064.18C254.314 2062.15 245.964 2062.15 237.857 2060.37C229.101 2059.4 223.994 2051.29 217.832 2046.02C207.861 2033.7 189.377 2040.27 177.297 2031.67C170.082 2026.73 165.217 2018.95 157.759 2014.49C147.706 2010.92 136.599 2011.57 126.79 2007.11C117.791 2002.74 112.359 1993.74 104.333 1988.06C94.6044 1984.34 83.7408 1984.9 74.2555 1980.61C64.6891 1974.61 58.6088 1962.94 46.6913 1961.23C34.0443 1958.56 18.6407 1958.15 10.6147 1946.32C-2.27561 1930.19 -0.167764 1908.79 0.642948 1889.5C7.69614 1835.67 27.8828 1785.01 47.9885 1735C100.928 1612.68 164.326 1495.15 229.912 1379.15C249.045 1341.95 271.339 1306.52 292.337 1270.37C314.55 1227.41 342.925 1187.93 365.22 1144.97C397.405 1092.04 428.779 1038.71 461.289 985.937C479.206 958.62 494.123 929.439 512.85 902.609C591.895 774.212 672.074 646.544 753.956 519.931C838.999 392.669 923.232 263.867 1025.06 149.25C1073.38 98.9127 1123.72 47.3595 1188.33 18.3405L1188.74 18.4216ZM1088.86 123.068C1033.08 175.999 985.09 236.469 938.96 297.749C898.749 354.247 857.727 410.259 820.353 468.783C765.792 549.355 713.988 631.792 662.021 713.985C537.739 912.579 413.781 1111.42 295.661 1313.74C288.04 1328.25 279.203 1342.11 269.718 1355.56C256.99 1373.4 248.721 1393.66 237.452 1412.39C199.267 1478.12 164.731 1545.81 129.627 1613.25C95.4961 1675.75 66.2295 1740.84 40.2057 1807.14C33.3957 1831.86 21.1539 1855.78 21.3972 1881.96C21.1539 1894.52 20.3432 1907.25 22.2079 1919.73C24.7211 1930.92 36.5574 1935.46 46.1238 1938.94C54.9606 1922.57 53.177 1903.44 57.4738 1885.85C62.1759 1866.88 67.2023 1848.08 73.3637 1829.59C98.4958 1760.61 127.195 1692.77 162.299 1628.16C212.239 1525.87 267.529 1426.41 322.901 1326.95C338.71 1299.39 355.248 1272.15 369.111 1243.54C385.325 1215.25 401.296 1186.8 418.646 1159.16C432.833 1134.44 446.372 1109.23 462.181 1085.48C475.882 1065.29 486.908 1043.49 499.149 1022.49C535.793 965.51 568.708 906.175 605.109 849.029C665.183 749.894 726.716 651.651 788.978 553.895C816.218 514.176 840.621 472.674 868.59 433.441C928.097 345.169 990.927 258.76 1064.21 181.349C1105.64 141.631 1148.61 100.696 1203.25 80.0261C1236.25 68.1915 1272.73 56.6002 1307.51 68.6779C1373.42 80.4314 1425.47 126.878 1470.06 173.892C1507.84 215.88 1542.62 260.706 1573.34 308.125C1644.6 411.88 1704.6 522.687 1766.45 632.197C1828.23 747.625 1890.57 862.728 1950.16 979.29C2022.48 1117.01 2093.01 1255.7 2162.08 1395.04C2185.19 1443.11 2207.72 1491.42 2230.99 1539.4C2278.9 1646.73 2328.92 1753.97 2360.62 1867.53C2366.38 1889.17 2365 1912.36 2374.49 1932.94C2383.97 1933.19 2396.38 1931.08 2397.75 1919.57C2399.78 1895.5 2400.43 1870.2 2392.24 1847.1C2370.51 1772.77 2338.49 1702.01 2306.87 1631.41C2192.32 1382.96 2063.09 1141.73 1934.51 900.339C1852.47 746.409 1769.37 593.046 1681.25 442.52C1652.06 395.992 1625.55 347.682 1593.77 302.775C1556.07 244.737 1515.86 188.158 1469.25 136.929C1424.01 87.4835 1370.58 39.821 1303.13 25.6358C1283.76 24.501 1264.22 24.0957 1245 26.2843C1184.2 40.9559 1132.48 79.7019 1088.86 123.149V123.068ZM1153.39 138.956C1089.02 187.023 1037.62 249.682 988.251 312.502C967.254 341.035 944.878 368.676 925.664 398.505C823.191 544.167 731.094 696.801 637.619 848.38C589.787 927.007 542.36 1005.96 494.204 1084.34C459.668 1143.43 424.564 1202.2 388.892 1260.56C372.759 1286.18 359.058 1313.25 343.412 1339.11C309.281 1395.44 279.284 1454.13 246.694 1511.28C217.995 1565.67 188.242 1619.41 161.812 1675.02C141.707 1712.22 126.384 1751.62 108.062 1789.63C96.469 1813.06 91.1183 1838.84 81.4709 1862.99C72.472 1885.2 69.148 1909.11 70.4452 1933.03C83.6598 1933.19 98.2526 1932.13 107.981 1922.08C112.845 1912.03 113.737 1900.76 117.061 1890.23C127.438 1848.16 145.76 1808.76 160.921 1768.31C202.591 1671.12 250.991 1576.93 300.687 1483.64C369.679 1352 444.913 1223.84 518.525 1094.72C533.199 1070.56 548.359 1046.65 560.763 1021.2C590.354 970.698 621.242 920.928 650.671 870.266C676.533 830.142 699.314 788.235 724.851 747.787C755.415 695.099 788.897 644.032 821.002 592.235C861.213 529.496 901.424 466.676 944.959 406.044C962.714 382.456 978.523 357.409 997.818 334.955C1039.57 282.105 1083.1 229.579 1137.02 188.645C1171.55 161.328 1212.25 138.145 1257 134.822C1263.24 134.011 1269.41 132.633 1275.73 132.876C1303.62 135.389 1331.67 140.577 1356.4 154.357C1418.74 187.672 1465.6 242.467 1508.48 297.344C1581.12 395.506 1642.09 501.612 1700.38 608.69C1767.02 728.414 1829.12 850.569 1891.55 972.562C1959.56 1104.28 2025.8 1236.98 2090.49 1370.32C2138.81 1468.88 2184.46 1568.67 2228.96 1669.02C2248.18 1720.98 2272.42 1770.99 2288.39 1824.08C2298.36 1848.72 2302.58 1875.15 2312.47 1899.87C2318.22 1913.81 2334.44 1916.98 2347.25 1921.19C2348.38 1915.27 2350.41 1909.36 2349.44 1903.28C2320.74 1790.2 2269.66 1684.74 2221.99 1578.8C2142.22 1409.63 2057.09 1243.14 1971.56 1076.88C1912.06 963.078 1853.28 848.867 1791.91 736.033C1729.48 618.336 1664.87 501.693 1594.74 388.454C1558.42 333.253 1522.83 277.323 1480.52 226.337C1458.06 200.479 1436.57 173.406 1409.17 152.492C1371.72 119.177 1324.53 90.2395 1272.57 93.2386C1228.87 92.8333 1188.17 113.341 1153.96 138.875L1153.39 138.956ZM1122.51 235.902C1058.86 295.318 1006.74 365.433 956.634 436.116C873.292 556.732 796.924 681.886 720.555 806.959C680.1 875.697 637.781 943.381 598.542 1012.93C555.007 1082.23 513.256 1152.67 473.206 1224.09C450.02 1262.18 428.374 1301.25 406.161 1340C375.759 1395.61 342.358 1449.59 314.064 1506.33C294.201 1543.78 272.555 1580.34 253.99 1618.52C217.67 1690.42 181.513 1762.56 152.327 1837.78C143.815 1861.21 133.437 1884.47 131.411 1909.68C146.814 1907.01 161.083 1899.71 173.406 1890.23C182.648 1882.69 184.755 1870.2 188.323 1859.51C194.808 1836.81 205.185 1815.65 213.86 1793.77C238.668 1729.73 270.367 1668.77 299.552 1606.76C318.199 1574.34 333.521 1540.22 351.357 1507.31C373.975 1463.45 397.81 1420.33 420.429 1376.56C443.453 1327.76 472.882 1282.29 497.609 1234.46C558.493 1128.76 618.486 1022.58 680.505 917.442C755.415 789.856 830.325 662.27 911.477 538.493C955.985 472.431 999.52 405.233 1052.05 345.088C1095.75 293.615 1144.72 243.44 1207.14 215.07C1239.98 200.155 1278 197.48 1312.86 206.153C1360.12 220.176 1399.04 252.519 1433.66 286.401C1504.59 363.164 1558.83 453.058 1611.28 542.952C1677.27 657.893 1737.11 776.238 1797.42 894.26C1905.73 1110.44 2013.72 1326.87 2113.84 1546.94C2159.24 1647.37 2203.1 1748.78 2238.85 1853.1C2251.1 1866.96 2266.91 1880.09 2285.06 1885.36C2276.71 1852.78 2263.82 1821.49 2252.23 1789.96C2202.78 1665.37 2144.49 1544.51 2086.93 1423.49C2027.42 1299.96 1965.16 1177.8 1903.63 1055.24C1818.01 888.829 1733.38 721.848 1641.77 558.596C1614.12 511.501 1587.93 463.595 1557.78 418.04C1534.59 381.807 1511.32 345.493 1484.49 311.773C1452.38 269.541 1417.2 228.688 1374.23 197.156C1351.86 181.592 1327.21 167.569 1299.89 163.435C1280.59 162.301 1261.06 161.814 1241.84 164.165C1195.55 174.865 1157.53 205.343 1122.67 236.064L1122.51 235.902ZM1255.87 229.174C1207.55 237.199 1166.53 267.109 1131.5 299.857C1072.32 355.706 1024 421.688 977.469 487.994C944.635 537.034 911.801 586.156 881.319 636.736C841.107 697.368 805.76 760.999 767.819 823.09C720.149 904.311 672.479 985.45 625.701 1067.16C591.895 1121.71 561.655 1178.37 530.037 1234.22C510.58 1269.07 487.88 1302.07 469.802 1337.73C399.026 1462.8 330.927 1589.58 268.259 1718.87C245.397 1767.83 221.562 1816.46 203.807 1867.53C220.913 1862.99 235.992 1853.02 249.856 1842.4C265.583 1829.76 269.313 1808.84 277.014 1791.25C324.846 1679.88 379.569 1571.58 435.671 1464.18C444.994 1442.46 456.911 1421.95 467.856 1401.04C510.905 1322.33 552.737 1242.97 596.921 1164.75C640.375 1087.67 683.991 1010.66 727.608 933.654C760.928 878.21 791.167 820.983 825.542 766.187C872.157 687.398 919.017 608.609 971.145 533.306C1018.98 464.811 1066.97 395.344 1129.15 338.846C1160.93 310.719 1196.36 284.051 1238.52 274.405C1255.46 271.892 1272.65 272.54 1289.75 272.945C1313.18 273.108 1334.99 283.564 1354.69 295.318C1388.9 315.663 1415.98 345.25 1442.98 373.945C1470.62 408.962 1497.86 444.384 1521.05 482.482C1592.88 595.64 1653.76 715.12 1714.16 834.6C1731.02 870.671 1751.54 904.797 1768.07 941.03C1798.4 1003.53 1829.53 1065.7 1859.28 1128.52C1934.03 1285.85 2009.99 1442.7 2078.74 1602.87C2094.3 1640.08 2112.38 1676.31 2126.17 1714.25C2138.25 1740.75 2146.68 1768.8 2159.08 1795.14C2169.46 1810.14 2186.08 1819.87 2202.62 1826.68C2202.05 1818.49 2200.99 1810.22 2197.35 1802.76C2186.24 1777.8 2175.86 1752.59 2165.89 1727.14C2090.82 1552.29 2007.56 1381.1 1924.54 1209.9C1867.95 1096.34 1811.53 982.694 1754.7 869.293C1690 743.247 1625.39 617.039 1552.34 495.532C1514.4 435.549 1476.3 375.16 1429.36 321.743C1406.33 298.398 1384.28 273.351 1355.67 256.572C1326.8 236.631 1291.05 224.797 1255.79 229.336L1255.87 229.174ZM1194.66 321.337C1158.99 342.007 1131.34 373.296 1102.97 402.639C1076.86 429.875 1055.46 461.164 1032.44 490.993C1013.63 519.283 992.548 546.194 975.28 575.537C952.175 607.15 933.204 641.438 912.044 674.429C824.163 817.821 741.957 964.699 658.697 1110.77C622.864 1175.94 585.409 1240.22 549.981 1305.55C514.634 1370.72 477.179 1434.76 442.805 1500.33C410.457 1563.4 376.408 1625.73 346.087 1689.85C340.493 1701.12 333.116 1711.49 328.819 1723.41C317.226 1753.8 299.471 1781.61 290.31 1812.98C308.065 1805.76 324.198 1795.14 339.115 1783.23C346.817 1776.99 350.951 1767.75 354.843 1758.99C375.273 1708.25 400.324 1659.61 423.672 1610.25C438.589 1584.39 447.912 1555.94 462.262 1529.76C478.719 1498.88 493.636 1467.26 510.094 1436.46C530.443 1399.34 548.035 1360.67 569.924 1324.52C588.895 1286.83 612 1251.24 629.836 1212.98C641.186 1193.53 651.563 1173.59 661.535 1153.4C747.389 996.717 833.568 840.193 926.394 687.479C959.309 631.63 995.061 577.483 1032.44 524.551C1071.75 469.837 1114.8 416.419 1168.96 375.647C1191.25 358.138 1217.84 346.628 1245.25 339.819C1262.03 338.198 1279.05 338.36 1295.84 339.738C1344.15 351.329 1384.61 383.59 1417.04 420.148C1445.41 452.085 1471.03 486.454 1493.73 522.606C1564.34 633.332 1622.96 751.11 1681.41 868.564C1711.73 930.655 1740.59 993.475 1770.99 1055.57C1795.23 1105.98 1817.77 1157.21 1842.58 1207.39C1856.52 1239.16 1871.03 1270.7 1886.28 1301.9C1948.94 1440.11 2012.26 1578.07 2069.17 1718.79C2076.31 1741 2098.2 1752.35 2116.84 1763.61C2114.17 1740.84 2102.25 1720.98 2093.82 1700.06C2080.6 1666.67 2064.47 1634.49 2051.01 1601.25C1943.03 1362.05 1828.8 1125.84 1713.19 890.288C1647.04 758.324 1580.8 626.037 1502.16 500.963C1463.08 440.494 1421.74 379.619 1365.15 333.902C1338.8 313.151 1306.94 295.561 1272.41 297.344C1244.44 295.399 1218.49 307.72 1194.82 321.256L1194.66 321.337ZM1174.88 405.233C1101.35 466.676 1047.84 547.491 996.034 627.09C942.933 707.582 896.073 792.045 847.431 875.292C812.976 937.464 776.737 998.744 743.984 1061.97C684.316 1167.35 626.836 1273.94 569.357 1380.61C550.143 1415.55 533.037 1451.7 513.337 1486.47C499.717 1514.44 481.395 1539.97 469.639 1568.91C448.237 1610.9 426.753 1652.81 406.566 1695.44C398.702 1712.38 387.19 1728.51 386.622 1747.89C406.161 1738.24 424.969 1725.43 438.67 1708.33C452.209 1684.18 460.559 1657.43 474.017 1633.19C497.609 1583.58 521.849 1534.38 546.819 1485.5C588.733 1404.77 627.323 1322.33 671.263 1242.57C693.234 1200.42 714.069 1157.62 738.066 1116.52C755.01 1084.18 773.007 1052.4 789.87 1019.98C809.003 982.127 831.622 946.137 850.674 908.283C896.722 827.305 941.798 745.76 991.9 667.133C1030 606.583 1069.48 546.356 1118.13 493.668C1155.83 451.112 1204.06 413.339 1261.87 404.99C1280.51 404.017 1298.75 409.772 1316.27 415.447C1364.5 435.144 1401.31 474.457 1431.79 515.554C1455.22 545.627 1475.49 577.807 1495.68 610.149C1567.42 732.71 1628.63 861.026 1688.22 989.828C1703.06 1018.2 1715.3 1047.78 1728.59 1076.88C1789.23 1205.85 1845.98 1336.52 1904.27 1466.53C1930.62 1529.84 1958.83 1592.25 1984.21 1655.97C1992.8 1673.88 2009.83 1686.12 2026.77 1695.52C2027.66 1681.74 2021.58 1669.42 2015.5 1657.59C1982.26 1577.83 1945.46 1499.52 1911 1420.33C1848.82 1287.15 1787.86 1153.4 1724.46 1020.79C1668.84 903.905 1612.74 787.1 1551.05 673.213C1517.16 612.419 1483.19 551.544 1442.49 494.965C1417.44 461.731 1391.9 428.092 1359.39 401.748C1340.42 386.428 1318.37 375.16 1295.19 367.784C1251.65 357.895 1207.79 377.673 1174.96 405.314L1174.88 405.233ZM1159.72 490.507C1106.78 540.196 1067.21 601.557 1026.84 661.378C1003.17 701.907 976.901 740.816 954.039 781.831C866.32 931.709 786.628 1086.04 703.773 1238.6C676.047 1293.8 644.267 1346.81 617.108 1402.33C581.518 1467.42 548.44 1533.89 515.201 1600.2C503.446 1627.92 487.475 1653.78 476.774 1681.99C503.608 1672.42 528.335 1652.89 539.198 1626.06C547.387 1606.93 556.467 1588.12 565.384 1569.32C621.08 1456.81 674.506 1343.08 732.958 1231.95C803.652 1093.5 876.535 956.188 951.85 820.172C994.251 748.435 1035.84 675.969 1085.13 608.609C1119.75 565.81 1154.04 520.336 1203.17 493.182C1218.25 485.562 1233.73 476.403 1251.25 476.727C1272.08 476.727 1294.05 473.971 1313.51 483.293C1360.45 503.962 1394.17 544.573 1424.58 584.454C1481.97 665.026 1526.4 753.785 1569.94 842.382C1627.33 961.133 1680.52 1081.83 1734.11 1202.28C1786.23 1323.71 1839.9 1444.49 1890.01 1566.72C1895.52 1579.61 1899.41 1593.47 1907.52 1605.06C1916.6 1616.65 1930.05 1623.95 1943.84 1628.81C1930.7 1591.53 1913.76 1555.62 1897.71 1519.46C1874.6 1464.91 1849.79 1411.09 1826.04 1356.78C1801.8 1303.85 1779.75 1249.86 1753.97 1197.58C1704.03 1087.1 1653.6 976.777 1600.99 867.429C1549.67 763.593 1498.43 659.028 1433.25 562.973C1411.28 530.306 1386.23 499.585 1356.96 473.079C1333.86 451.923 1304.59 433.523 1272.16 434.657C1227.98 432.631 1189.31 460.191 1159.64 490.345L1159.72 490.507ZM1231.3 509.069C1210.95 517.418 1192.71 530.469 1176.98 545.708C1155.18 566.621 1133.77 588.182 1116.34 612.986C1083.51 654.812 1055.3 699.962 1027.49 745.193C967.173 844.165 913.342 946.948 858.943 1049.24C805.355 1151.13 752.821 1253.51 699.962 1355.81C666.561 1423.49 630.728 1489.96 598.461 1558.13C590.192 1574.67 579.166 1590.71 578.842 1609.84C594.57 1602.47 612.406 1594.12 619.621 1577.18C631.052 1551.08 643.942 1525.54 656.103 1499.77C676.938 1461.35 693.152 1420.65 713.664 1382.07C748.362 1309.12 785.33 1237.22 821.164 1164.83C853.673 1098.2 889.02 1032.95 922.665 966.888C973.01 871.806 1024.33 776.887 1084.89 687.884C1120.64 637.79 1158.74 585.751 1214.2 556.083C1243.95 539.304 1282.3 536.629 1312.86 552.76C1340.1 566.053 1363.77 586.075 1382.66 609.582C1433.01 667.944 1468.19 737.087 1504.03 804.771C1553.8 904.959 1598.88 1007.42 1643.63 1109.88C1700.7 1243.05 1757.21 1376.56 1811.45 1510.87C1817.28 1524.49 1821.34 1539.32 1830.66 1551.16C1837.55 1559.83 1848.01 1564.21 1857.74 1568.75C1857.09 1550.35 1848.33 1533.97 1840.96 1517.6C1755.43 1318.11 1668.76 1119.2 1578.29 921.982C1558.75 879.507 1537.1 838.167 1517.4 795.854C1493.97 750.786 1469.73 706.204 1443.95 662.432C1412.42 612.743 1380.39 561.109 1332.48 525.281C1316.99 513.933 1299 503.476 1279.13 503.638C1263.08 503.638 1246.3 502.341 1231.3 509.069ZM1200.58 596.612C1155.26 633.737 1120.96 681.886 1088.86 730.278C1045.81 798.691 1004.95 868.483 967.821 940.382C899.803 1066.02 838.351 1195.07 773.008 1322.17C745.038 1378.1 718.122 1434.51 689.991 1490.45C681.235 1509.33 670.534 1527.49 665.426 1547.83C686.91 1545.57 702.151 1527.57 709.61 1508.52C730.607 1464.91 749.821 1420.49 771.224 1377.04C790.762 1334.81 812.489 1293.64 831.217 1250.92C886.426 1139.87 938.474 1027.2 998.304 918.496C1040.14 846.435 1078.24 771.537 1129.88 705.717C1158.99 668.673 1192.63 631.224 1238.6 615.904C1256.35 613.148 1274.68 613.554 1292.51 615.418C1327.78 625.956 1353.88 653.921 1377.39 680.751C1404.88 717.065 1430.82 754.758 1451.49 795.53C1514.97 913.227 1564.34 1037.65 1617.04 1160.37C1661.06 1269.48 1705.81 1378.34 1749.02 1487.77C1753.81 1502.93 1768.72 1510.3 1781.78 1517.28C1781.29 1511.6 1781.13 1505.77 1778.78 1500.5C1753.81 1441.4 1729.57 1381.99 1705 1322.74C1664.47 1229.6 1625.88 1135.57 1584.85 1042.68C1535.81 932.6 1486.84 822.117 1426.28 717.714C1402.44 680.265 1379.26 641.681 1346.91 610.96C1329.16 592.235 1306.86 576.996 1281.57 570.755C1251.98 564.919 1223.03 578.617 1200.5 596.693L1200.58 596.612ZM1205.2 663.405C1170.34 692.424 1142.77 729.062 1118.29 766.917C1085.05 815.308 1056.68 866.862 1028.79 918.496C980.55 1007.34 936.609 1098.36 892.182 1189.15C845.242 1284.07 800.004 1379.8 754.199 1475.29C751.443 1481.45 749.74 1488.01 748.2 1494.66C759.55 1490.28 771.873 1485.66 779.331 1475.53C784.844 1466.78 788.654 1456.97 793.113 1447.57C806.814 1415.39 823.353 1384.5 836.243 1352C874.833 1267.21 914.801 1183.15 954.85 1099.09C968.065 1067.24 985.9 1037.65 1000.25 1006.28C1018.98 966.077 1041.92 928.142 1062.35 888.747C1082.37 853.163 1103.37 818.064 1126.96 784.668C1156.8 741.302 1192.87 696.639 1245.25 680.751C1267.78 672.24 1291.62 681.4 1311.64 692.099C1340.42 707.825 1360.77 734.493 1379.82 760.513C1399.93 787.424 1415.9 817.092 1431.63 846.678C1491.95 963.078 1539.78 1085.31 1588.34 1206.9C1615.9 1271.34 1637.71 1338.06 1664.38 1402.9C1671.84 1420.9 1676.3 1440.51 1687.73 1456.56C1692.68 1463.86 1702.24 1463.53 1709.87 1465.72C1707.51 1457.94 1705 1450.24 1702.16 1442.62C1674.92 1377.53 1650.12 1311.39 1622.63 1246.38C1609.26 1214.68 1598.15 1182.02 1583.48 1150.89C1554.94 1079.32 1524.13 1008.71 1492.43 938.517C1456.36 861.674 1419.79 784.587 1371.15 714.715C1350.56 685.047 1325.02 657.001 1291.78 641.438C1276.86 636.817 1260.49 638.195 1245.17 639.979C1230.57 645.085 1217.6 654.002 1205.44 663.324L1205.2 663.405ZM1221.57 720.875C1184.44 747.381 1157.12 785.155 1133.37 823.495C1109.37 858.999 1088.05 896.286 1068.51 934.383C1044.68 975.967 1024.17 1019.41 1003.25 1062.54C950.634 1167.51 902.235 1274.51 853.106 1381.18C845.161 1399.25 834.459 1416.11 828.541 1435C834.054 1445.3 847.269 1437.51 851.565 1429.89C866.807 1406.63 874.59 1379.48 886.912 1354.75C918.449 1281.4 951.769 1208.85 985.333 1136.38C1008.92 1080.69 1037.95 1027.6 1063.65 972.967C1098.02 910.471 1132.07 846.678 1179.9 793.26C1200.9 768.943 1229.84 750.137 1262.27 746.49C1298.92 747.949 1329.32 772.104 1350.72 800.151C1396.69 860.215 1428.71 929.358 1459.03 998.177C1510.51 1117.25 1555.02 1239.16 1599.69 1360.91C1607.15 1381.91 1613.88 1403.55 1626.28 1422.36C1630.01 1422.28 1637.39 1422.11 1641.04 1422.03C1623.52 1367.48 1600.58 1314.79 1580.56 1261.13C1557.69 1199.69 1532 1139.46 1507.84 1078.51C1483.68 1022.41 1461.14 965.672 1433.41 911.201C1409.74 861.674 1385.09 812.228 1352.58 767.808C1332.72 742.275 1309.54 715.931 1277.35 706.447C1257.57 699.8 1238.19 711.391 1221.57 720.875ZM1199.04 808.986C1153.56 856.973 1123.96 916.794 1092.35 974.183C1060.89 1034.49 1032.27 1096.1 1003.98 1157.86C968.875 1234.14 934.501 1310.66 900.208 1387.34C897.452 1394.15 895.83 1401.28 894.128 1408.41C981.036 1358.08 1071.92 1311.71 1170.34 1288.77C1200.33 1281.8 1231.3 1284.39 1261.79 1284.15C1300.78 1284.31 1338.07 1296.63 1375.2 1307.17C1412.98 1318.52 1450.6 1331.25 1485.78 1349.48C1518.21 1363.83 1550.07 1379.4 1581.85 1395.04C1576.91 1368.94 1564.91 1345.03 1556.97 1319.82C1505.81 1181.94 1455.38 1043.41 1390.85 911.12C1374.72 880.885 1358.91 850.245 1337.59 823.171C1319.35 798.448 1294.38 774.05 1261.95 772.104C1237.3 775.752 1215.25 790.342 1199.04 808.905V808.986ZM1169.28 1317.22C1146.42 1319.57 1125.67 1330.03 1103.62 1335.79C1073.54 1345.19 1045.73 1360.27 1016.71 1372.26C986.711 1386.12 958.093 1402.74 928.988 1418.3C908.234 1431.43 883.426 1439.46 867.942 1459.48C874.671 1460.53 881.562 1460.21 887.399 1456.32C929.799 1433.46 969.686 1405.9 1013.38 1385.39C1081.16 1353.94 1151.77 1323.46 1227.17 1318.52C1242.33 1317.55 1257.08 1321.92 1272.16 1322.41C1294.13 1324.03 1314.97 1332.14 1336.78 1335.06C1413.06 1354.02 1485.14 1386.85 1553.97 1424.3C1570.1 1432.81 1584.93 1445.46 1603.74 1447.08C1600.5 1441.57 1597.74 1435.24 1591.91 1432C1570.99 1418.55 1548.21 1408.41 1526.24 1396.98C1480.84 1372.59 1432.85 1353.29 1384.04 1337C1358.67 1331.73 1334.99 1319.74 1308.97 1318.11C1293 1316.49 1277.43 1311.71 1261.3 1311.47C1230.57 1311.14 1199.36 1309.6 1169.28 1317.14V1317.22ZM1213.63 1349.57C1190.28 1348.76 1167.74 1355.32 1145.85 1362.62C1091.13 1376.8 1040.46 1402.58 990.359 1428.19C974.226 1435.73 958.741 1444.57 943.581 1453.81C916.99 1469.78 889.345 1484.12 863.321 1501.15C853.106 1507.39 845.728 1516.87 840.297 1527.41C865.51 1520.11 884.48 1500.74 907.748 1489.39C988.576 1440.03 1072 1391.72 1164.34 1367.88C1186.55 1364.89 1208.52 1360.51 1230.73 1357.18C1252.95 1356.86 1274.19 1365.94 1296.4 1366.34C1319.26 1366.34 1340.34 1376.23 1362.07 1381.58C1382.42 1386.53 1401.07 1396.34 1420.85 1402.9C1467.06 1419.52 1509.62 1444.32 1552.83 1467.26C1575.77 1479.66 1596.69 1495.8 1620.77 1506.09C1620.12 1487.69 1600.18 1482.18 1587.29 1473.83C1522.1 1436.3 1454.9 1401.52 1383.55 1377.21C1361.1 1367.97 1336.86 1364.72 1313.91 1357.18C1281.57 1346.73 1247.11 1350.05 1213.55 1349.57H1213.63ZM1139.85 1402.58C1105.48 1415.55 1070.62 1427.87 1038.27 1445.54C976.415 1477.4 916.422 1512.82 858.7 1551.64C845.809 1560.4 831.865 1567.94 820.272 1578.47C814.921 1582.37 815.408 1589.58 813.786 1595.34C830.973 1587.31 846.134 1575.64 861.943 1565.26C892.668 1543.54 924.854 1524.25 956.796 1504.47C1029.03 1458.43 1107.51 1420.98 1190.85 1400.47C1207.31 1396.58 1224.33 1398.44 1241.11 1397.96C1279.46 1396.26 1316.18 1409.39 1352.91 1418.47C1447.52 1449.59 1535.56 1498.06 1617.85 1553.83C1626.36 1559.75 1635.69 1564.37 1645.25 1568.42C1641.85 1546.21 1618.01 1539.97 1602.12 1528.54C1577.07 1511.2 1550.32 1496.77 1523.48 1482.58C1495.27 1465.32 1464.71 1452.75 1435.44 1437.51C1411.6 1428.68 1388.42 1417.9 1363.85 1411.17C1332.56 1398.93 1299.16 1394.55 1266.24 1388.64C1251.08 1386.29 1235.68 1382.88 1220.28 1385.64C1193.2 1389.93 1166.45 1396.26 1139.85 1402.66V1402.58ZM1172.28 1433.46C1116.02 1448.86 1062.43 1473.1 1011.68 1501.87C978.117 1521.57 943.824 1540.46 912.207 1563.32C873.13 1589.66 832.352 1613.74 795.788 1643.65C788.492 1649 784.439 1657.18 782.169 1665.78C810.868 1653.54 833.487 1631.33 859.186 1614.22C896.479 1587.55 934.258 1561.37 973.983 1538.43C1000.25 1523.36 1025.14 1505.85 1052.78 1493.12C1080.75 1477.31 1110.67 1465.48 1140.42 1453.48C1155.26 1447.4 1171.39 1446.03 1186.71 1441.32C1210.95 1433.3 1236.9 1435.73 1262.03 1436.54C1307.43 1443.67 1351.94 1456.32 1394.5 1473.42C1447.76 1494.58 1496.89 1524.41 1546.43 1552.94C1566.86 1565.34 1586.07 1579.85 1606.34 1592.5C1627.58 1605.95 1645.9 1624.19 1669.41 1634C1666.01 1626.22 1663.17 1617.55 1656.2 1612.11C1635.36 1595.74 1612.58 1581.88 1590.61 1567.13C1545.86 1540.05 1502.24 1510.63 1454.25 1489.47C1421.09 1473.5 1387.61 1457.7 1352.26 1447.16C1332.24 1442.78 1313.51 1432.08 1292.59 1432.08C1274.03 1431.27 1256.27 1424.46 1237.55 1425.19C1215.33 1424.06 1193.93 1430.87 1172.12 1433.38L1172.28 1433.46ZM1637.87 1461.91C1638.12 1478.77 1655.47 1484.77 1668.92 1488.99C1662.84 1476.1 1653.93 1461.99 1637.87 1461.91ZM1173.42 1472.86C1143.58 1479.66 1116.26 1493.12 1088.46 1505.36C979.009 1557.08 881.4 1629.7 784.276 1701.12C773.089 1709.55 760.36 1716.84 752.01 1728.35C747.957 1732.89 751.362 1739.21 752.821 1744.08C823.109 1690.34 892.993 1635.95 966.849 1587.07C1019.79 1553.51 1073.38 1520.11 1131.91 1497.01C1153.07 1490.04 1173.66 1480.48 1196.12 1478.53C1229.84 1475.29 1263.89 1476.5 1297.38 1481.77C1400.74 1507.06 1493.41 1562.26 1579.91 1622.49C1618.5 1648.43 1653.44 1679.72 1693.49 1703.39C1690.41 1688.63 1680.03 1677.29 1667.47 1669.58C1579.26 1604.58 1487.73 1542.16 1386.15 1499.69C1366.04 1493.36 1347.15 1483.39 1326.48 1479.1C1298.27 1472.77 1270.54 1461.99 1241.19 1463.61C1218.17 1462.48 1195.06 1464.51 1173.5 1472.77L1173.42 1472.86ZM796.275 1510.95C810.706 1504.87 831.622 1497.9 830.325 1478.61C814.84 1483.23 798.221 1493.44 796.275 1510.95ZM1190.44 1508.04C1139.21 1518.01 1092.02 1542 1047.51 1568.42C1021 1582.45 996.196 1599.31 971.307 1615.84C941.554 1633.59 914.882 1655.8 886.264 1675.26C844.188 1706.63 802.112 1738.08 761.252 1771.07C744.146 1785.17 718.852 1796.6 717.636 1821.89C740.255 1812.65 756.226 1793.28 775.845 1779.34C801.707 1760.61 825.379 1738.97 850.43 1719.27C889.588 1689.2 929.637 1660.34 969.524 1631.24C997.818 1612.11 1027.33 1594.77 1055.86 1576.12C1090.81 1554.89 1128.18 1537.14 1167.26 1525.14C1186.63 1518.65 1206.33 1510.87 1227.17 1511.28C1254.73 1510.47 1281.81 1517.11 1308.16 1524.65C1357.85 1536.41 1404.07 1559.1 1448.17 1584.47C1469.33 1595.01 1489.27 1607.9 1508.65 1621.44C1556.97 1652.72 1603.42 1687.01 1647.85 1723.57C1671.92 1741.56 1693.16 1763.21 1718.95 1779.01C1717.89 1772.93 1718.95 1765.8 1714.24 1761.1C1704.35 1750.16 1692.6 1741.16 1681 1732.08C1602.37 1670.48 1522.43 1609.36 1433.41 1563.4C1380.64 1536.81 1325.51 1512.33 1266.33 1505.04C1241.11 1504.39 1215.33 1502.28 1190.52 1508.04H1190.44ZM1702.89 1502.93C1708.89 1518.49 1721.86 1529.92 1737.35 1535.51C1735.48 1529.19 1734.51 1522.38 1730.86 1516.79C1723.24 1509.41 1712.86 1505.68 1702.81 1502.93H1702.89ZM1660.98 1522.95C1664.22 1537.54 1676.22 1546.7 1689.68 1551.4C1687.98 1545.24 1686.68 1538.84 1683.35 1533.33C1676.95 1527.89 1668.76 1525.62 1660.98 1522.95ZM713.664 1566.72C732.472 1560.24 749.902 1547.51 755.658 1527.65C737.417 1534.3 715.285 1544.67 713.664 1566.72ZM1182.17 1547.83C1153.72 1557.48 1125.99 1569.32 1098.99 1582.28C1036.89 1615.28 978.036 1654.26 922.989 1697.96C902.073 1714 879.778 1728.19 859.835 1745.29C805.274 1789.63 748.848 1831.95 696.395 1878.8C688.612 1886.82 680.911 1898.09 686.91 1909.52C782.655 1829.43 875.481 1745.37 977.469 1673.15C1039.73 1629.7 1103.05 1585.04 1175.85 1561.05C1200.74 1556.67 1225.63 1545.08 1251.33 1551.32C1269.24 1555.54 1287.4 1558.7 1305.4 1562.51C1349.75 1575.48 1392.31 1594.28 1431.71 1618.36C1495.59 1654.99 1555.02 1698.93 1611.28 1746.27C1636.58 1764.5 1658.47 1786.71 1682.38 1806.57C1703.22 1824 1722.03 1843.86 1744.32 1859.51C1743.1 1851.07 1742.54 1841.92 1736.62 1835.27C1721.86 1817.68 1702 1805.36 1685.71 1789.31C1649.47 1757.53 1610.63 1729 1573.26 1698.68C1508.48 1652.24 1442.82 1605.22 1368.39 1575.23C1311.56 1546.29 1245 1533.97 1182.17 1547.83ZM770.737 1563.8C765.549 1567.69 767.17 1574.67 766.603 1580.26C775.602 1575.96 784.682 1571.26 791.978 1564.21C797.329 1558.86 804.625 1551.16 797.977 1543.78C788.735 1550.1 779.007 1556.1 770.737 1563.8ZM1775.53 1550.75C1778.29 1558.86 1780.4 1568.18 1787.61 1573.69C1794.75 1578.8 1803.1 1581.64 1811.12 1584.96C1806.99 1567.37 1792.48 1555.29 1775.53 1550.75ZM1727.13 1568.18C1732.48 1587.23 1750.81 1597.12 1766.86 1606.12C1760.53 1588.04 1747.16 1571.18 1727.13 1568.18ZM1192.55 1585.36C1124.69 1602.47 1066.32 1642.92 1009.01 1681.34C982.333 1701.6 953.796 1719.52 928.826 1742.05C906.045 1760.78 881.886 1777.8 859.51 1796.93C813.543 1837.21 764.981 1874.58 719.906 1915.92C698.909 1932.78 677.749 1949.64 659.265 1969.34C650.995 1976.96 653.022 1988.55 652.941 1998.68C681.397 1975.09 708.556 1950.05 736.039 1925.41C757.604 1903.11 783.222 1885.36 805.274 1863.64C827.244 1844.27 849.863 1825.7 871.59 1806.01C901.1 1778.77 934.015 1755.51 965.227 1730.22C982.495 1716.19 1000.33 1703.06 1018.17 1689.85C1073.13 1651.35 1130.45 1614.14 1195.23 1594.61C1213.63 1589.74 1232.84 1591.61 1251.65 1591.44C1279.05 1591.2 1304.19 1603.12 1330.05 1610.66C1350.64 1617.06 1369.45 1627.84 1388.18 1638.22C1444.44 1665.86 1493.81 1704.85 1544.07 1741.89C1568.15 1758.75 1587.45 1781.36 1611.04 1798.95C1651.66 1835.27 1692.6 1871.26 1731.19 1909.76C1744.4 1923.22 1758.1 1936.67 1774.97 1945.59C1772.7 1936.02 1771.97 1925 1764.35 1917.87C1753.32 1907.01 1741.73 1896.87 1730.86 1885.93C1708.57 1863.31 1682.3 1845 1659.28 1823.11C1633.17 1797.25 1603.74 1775.04 1575.53 1751.62C1518.86 1707.2 1461.06 1663.51 1397.09 1629.95C1372.12 1618.76 1348.04 1605.71 1322.35 1596.23C1300.13 1589.9 1277.59 1584.64 1255.06 1579.61C1234.14 1574.75 1212.58 1578.56 1192.63 1585.45L1192.55 1585.36ZM1682.46 1582.77C1684.73 1590.15 1685.46 1598.74 1691.62 1604.17C1699.65 1611.22 1708.89 1616.82 1717.81 1622.65C1714.81 1614.63 1712.7 1605.95 1706.95 1599.39C1699.89 1592.42 1690.89 1587.8 1682.46 1582.77ZM627.323 1626.46C645.969 1617.22 670.615 1607.49 672.398 1583.42C652.86 1591.28 629.431 1602.63 627.323 1626.46ZM678.803 1641.78C699.071 1632.46 719.744 1618.68 725.905 1595.82C706.043 1605.63 682.451 1617.3 678.803 1641.78ZM1851.25 1603.12C1853.52 1626.3 1875.57 1638.54 1894.22 1647.94C1890.82 1638.94 1888.38 1628.73 1880.76 1622.17C1872.01 1614.3 1861.55 1608.63 1851.25 1603.12ZM736.85 1636.51C735.553 1641.54 735.309 1646.73 734.742 1651.83C751.767 1644.78 771.224 1633.43 772.602 1612.84C759.874 1619.17 745.93 1625 736.85 1636.43V1636.51ZM1083.35 1676.72C1028.79 1711.82 977.874 1752.02 927.448 1792.63C902.883 1812.57 880.427 1834.94 855.862 1854.88C832.271 1873.85 809.246 1893.55 787.438 1914.54C737.579 1957.75 689.747 2003.14 638.673 2044.97C626.107 2054.53 619.135 2069.77 621.891 2085.66C630.241 2080.96 638.105 2075.45 644.996 2068.72C671.831 2043.75 700.125 2020.41 725.986 1994.55C760.928 1964.15 793.113 1930.67 827.649 1899.79C854.889 1876.45 879.94 1850.59 908.153 1828.38C943.176 1795.31 980.955 1765.4 1018.98 1735.81C1039.25 1718.95 1061.46 1704.6 1083.27 1689.77C1125.18 1662.29 1170.34 1637.08 1220.52 1629.22C1252.46 1625.16 1283.76 1634.97 1313.83 1644.46C1339.69 1653.94 1363.85 1667.56 1388.5 1679.72C1433.41 1707.28 1476.95 1737.43 1517.08 1771.72C1543.02 1794.17 1570.5 1814.84 1595.88 1837.94C1621.98 1863.56 1646.47 1890.87 1673.14 1916C1698.68 1939.83 1722.11 1965.85 1747.73 1989.69C1768.32 2008.82 1784.94 2032.4 1808.93 2047.72C1804.15 2031.35 1801.8 2012.79 1788.83 2000.38C1721.3 1936.83 1654.74 1872.31 1585.42 1810.63C1568.96 1796.04 1550.88 1783.23 1534.35 1768.72C1506.86 1745.05 1476.3 1725.52 1446.95 1704.36C1420.28 1685.47 1391.9 1669.02 1362.56 1654.67C1326.16 1635.3 1285.94 1623.14 1244.92 1618.6C1185.42 1615.28 1132.64 1647.7 1083.43 1676.72H1083.35ZM1799.94 1618.27C1803.5 1638.62 1820.85 1653.62 1840.15 1659.05C1840.55 1636.84 1817.28 1625.98 1799.94 1618.27ZM1752.35 1633.59C1751.94 1655.32 1774.15 1665.21 1789.8 1675.1C1789.31 1653.94 1770.26 1640.48 1752.35 1633.59ZM546.089 1669.91C541.468 1675.1 533.118 1686.53 543.252 1690.25C562.466 1678.42 583.706 1664.56 590.192 1641.46C572.438 1644.86 558.737 1657.91 546.089 1669.91ZM1703.38 1650.62C1706.95 1670.48 1724.3 1681.82 1741.48 1689.28C1739.38 1669.18 1722.03 1655.16 1703.38 1650.62ZM627.809 1661.97C610.298 1671.94 591.327 1685.47 589.219 1707.28C610.46 1696.58 632.998 1683.04 641.591 1659.45C636.889 1659.53 631.863 1659.29 627.728 1661.97H627.809ZM1183.63 1666.18C1148.04 1678.34 1116.91 1699.74 1085.13 1719.27C1057.65 1740.11 1028.22 1758.51 1002.44 1781.61C948.445 1822.46 899.803 1869.48 849.944 1915.11C821.164 1942.75 790.113 1967.88 761.82 1996.09C716.096 2035.4 673.776 2078.61 626.269 2115.89C616.459 2124 605.434 2132.1 600.65 2144.43C597.326 2152.05 598.137 2160.48 597.57 2168.58C635.187 2149.94 662.832 2117.27 694.125 2090.2C722.581 2061.18 753.713 2035 782.169 2005.9C804.463 1983.28 827.974 1961.96 850.511 1939.59C903.37 1889.17 953.391 1835.67 1010.63 1790.04C1030.49 1775.04 1048.32 1757.45 1069.73 1744.56C1088.05 1733.38 1103.7 1718.22 1122.59 1708.01C1143.58 1696.5 1164.58 1684.74 1186.96 1676.31C1220.03 1666.1 1255.62 1668.86 1289.03 1676.07C1335.32 1691.47 1378.61 1715.14 1418.66 1742.78C1447.03 1763.61 1473.54 1786.71 1501.35 1808.2C1532.32 1838.11 1564.83 1866.48 1594.99 1897.28C1652.06 1952.88 1705.24 2012.22 1761.51 2068.64C1781.45 2088.66 1800.75 2109.41 1822.31 2127.81C1822.64 2119.54 1823.77 2111.03 1821.58 2102.92C1817.28 2094.57 1809.91 2088.5 1803.42 2082.01C1783.15 2063.21 1764.43 2042.86 1744.48 2023.81C1715.22 1995.6 1688.22 1965.12 1657.74 1938.21C1612.5 1895.98 1570.91 1849.94 1522.35 1811.36C1501.03 1791.09 1476.22 1775.04 1453.84 1755.99C1399.36 1715.3 1340.34 1678.34 1274.11 1660.51C1244.19 1655.24 1212.01 1653.45 1183.63 1666.18ZM1978.05 1710.76C1976.43 1684.74 1949.43 1673.8 1931.35 1660.02C1931.51 1685.55 1956.32 1702.74 1978.05 1710.76ZM644.996 1718.14C664.859 1708.9 690.072 1694.71 691.693 1670.31C671.344 1680.04 647.023 1692.69 644.996 1718.14ZM1880.2 1677.37C1880.76 1700.31 1903.06 1711.82 1919.19 1723.98C1922.51 1719.11 1923 1713.19 1919.35 1708.41C1911 1693.25 1894.79 1685.31 1880.2 1677.37ZM700.773 1729.08C714.798 1721.71 729.148 1713.19 738.714 1700.22C740.093 1695.28 739.525 1690.09 739.849 1684.99C723.635 1695.52 698.341 1705.74 700.773 1729V1729.08ZM1222.71 1694.96C1207.31 1698.2 1192.15 1702.66 1177.63 1708.66C1114.97 1737.43 1061.22 1781.61 1009.01 1825.87C979.739 1852.86 948.932 1878.23 920.476 1906.03C893.885 1927.84 871.266 1953.78 845.972 1976.88C818.164 2001.84 792.546 2029.16 765.063 2054.53C744.146 2073.74 723.473 2093.2 703.367 2113.38C669.48 2143.53 635.187 2173.45 596.84 2197.84C597.489 2205.54 600.245 2217.05 610.46 2215.43C629.674 2212.19 645.483 2199.06 660.481 2187.47C743.092 2112.81 817.921 2030.3 897.857 1952.88C914.396 1936.02 929.232 1917.54 946.824 1901.66C969.037 1881.39 989.143 1858.94 1012.17 1839.56C1037.79 1819.22 1060.73 1795.63 1087.73 1776.91C1124.61 1746.91 1166.53 1722.68 1211.85 1708.09C1236 1700.55 1261.3 1707.52 1284.57 1715.06C1320.16 1727.06 1354.45 1743.59 1384.61 1766.21C1401.71 1777.72 1419.23 1788.82 1434.3 1803.17C1466.25 1830.97 1498.68 1858.45 1527.7 1889.33C1543.18 1906.11 1560.78 1920.62 1575.85 1937.81C1599.45 1963.5 1624.58 1987.82 1647.04 2014.57C1668.76 2037.75 1690.33 2061.02 1710.76 2085.33C1744.08 2119.87 1774.15 2158.04 1812.91 2186.9C1818.34 2191.85 1826.12 2190.55 1832.93 2191.36C1832.44 2185.04 1834.15 2178.15 1831.55 2172.23C1822.07 2161.61 1809.1 2155.29 1798.96 2145.48C1756.08 2104.55 1715.95 2060.77 1674.92 2018.06C1656.68 1996.09 1637.06 1975.34 1616.71 1955.32C1583.39 1919.65 1547.07 1886.98 1511.73 1853.43C1478.57 1826.84 1448.49 1796.28 1412.82 1772.93C1373.83 1746.19 1335.07 1716.03 1287.97 1705.01C1266.65 1700.39 1245.17 1691.23 1222.95 1694.88L1222.71 1694.96ZM1832.04 1691.63C1833.26 1699.01 1831.23 1708.01 1837.15 1713.84C1847.04 1724.38 1859.12 1732.32 1870.87 1740.59C1874.28 1716.11 1848.17 1704.28 1832.04 1691.63ZM449.453 1738.89C443.859 1744.4 443.048 1752.43 442.075 1759.8C466.315 1749.02 493.231 1733.54 498.825 1705.17C480.341 1712.79 462.992 1724.06 449.453 1738.89ZM1783.48 1708.98C1784.21 1714.9 1783.8 1721.14 1785.99 1726.89C1793.37 1737.27 1804.96 1743.43 1815.91 1749.43C1815.26 1742.7 1817.37 1734.67 1812.18 1729.32C1804.23 1720.57 1793.77 1714.57 1783.48 1708.98ZM496.312 1770.75C512.526 1771.8 524.281 1758.67 536.199 1749.75C545.765 1742.86 550.548 1731.76 551.683 1720.33C528.173 1730.14 505.067 1745.62 496.312 1770.75ZM1731.19 1722.35C1733.46 1732.73 1736.29 1744.08 1745.54 1750.56C1752.02 1755.1 1759.89 1764.18 1768.4 1758.91C1765.89 1740.19 1746.67 1729.73 1731.19 1722.27V1722.35ZM2013.4 1724.22C2017.53 1750.56 2040.96 1769.69 2065.44 1776.74C2059.53 1750.64 2035.2 1735.97 2013.4 1724.22ZM568.627 1757.78C559.061 1765.32 554.683 1776.91 556.385 1788.9C571.627 1778.45 587.436 1768.31 599.921 1754.62C606.001 1748.78 604.947 1739.86 605.677 1732.24C592.3 1739.13 579.572 1747.4 568.627 1757.78ZM1967.35 1759.72C1978.13 1774.47 1993.61 1785.26 2009.75 1793.52C2008.69 1785.9 2010.23 1776.91 2004.48 1770.91C1992.8 1757.94 1977.4 1749.02 1963.29 1739.05C1963.78 1746.02 1962.48 1753.89 1967.35 1759.72ZM1905.17 1746.43C1909.22 1759.56 1910.68 1774.96 1921.54 1784.61C1934.11 1795.71 1948.7 1804.22 1961.51 1815.17C1957.54 1802.52 1955.67 1787.93 1945.13 1778.77C1932.41 1767.34 1918.06 1757.78 1905.25 1746.43H1905.17ZM616.297 1778.28C611.109 1783.55 611.919 1791.25 611.676 1798.14C632.592 1788.09 653.59 1773.5 661.535 1750.56C660.238 1749.51 657.643 1747.32 656.346 1746.19C641.916 1755.34 627.89 1765.64 616.297 1778.28ZM659.751 1819.14C673.047 1810.38 686.343 1801.39 697.693 1790.28C707.664 1780.72 713.258 1767.75 719.42 1755.59C690.558 1764.18 662.427 1787.36 659.751 1819.14ZM365.301 1792.96C353.627 1801.87 349.168 1816.63 345.601 1830.24C358.896 1825.22 370.814 1817.27 381.92 1808.52C397.324 1797.82 413.619 1782.66 411.755 1762.07C395.703 1771.48 379.975 1781.45 365.301 1792.96ZM1858.71 1770.99C1861.71 1794.82 1882.3 1812.33 1903.46 1820.92C1901.84 1796.44 1879.71 1779.5 1858.71 1770.99ZM1808.04 1783.96C1807.47 1803.49 1823.77 1816.3 1836.9 1828.05C1840.71 1832.19 1846.31 1832.51 1851.58 1832.67C1848.98 1808.44 1826.61 1795.47 1807.96 1783.96H1808.04ZM415.646 1815.25C408.431 1821.73 408.025 1831.7 407.296 1840.7C425.131 1833.97 439.886 1821.33 453.506 1808.44C460.559 1802.76 460.478 1793.36 461.127 1785.17C443.94 1791.66 428.861 1802.76 415.565 1815.25H415.646ZM2097.95 1788.5C2100.63 1798.39 2102.25 1809.49 2109.71 1817.19C2122.19 1829.68 2137.03 1839.56 2152.19 1848.56C2149.35 1837.3 2147.57 1824.33 2137.92 1816.71C2125.44 1806.25 2111.82 1797.09 2097.95 1788.5ZM1755.18 1795.87C1759.08 1821.08 1780.15 1837.13 1799.12 1851.56C1800.1 1824.73 1776.91 1806.49 1755.18 1795.87ZM475.395 1826.68C466.153 1834.78 462.91 1847.27 459.343 1858.61C475.963 1849.45 492.826 1839.89 506.284 1826.43C514.634 1819.06 516.417 1808.03 516.093 1797.5C501.825 1806.17 487.637 1815.33 475.314 1826.68H475.395ZM2096.9 1862.18C2094.79 1852.45 2093.17 1841.67 2085.47 1834.7C2073.23 1822.87 2059.12 1813.14 2045.01 1803.57C2047.61 1831.95 2072.98 1850.99 2096.9 1862.18ZM518.12 1872.31C531.74 1864.94 544.387 1855.7 555.656 1845C565.709 1836.4 574.221 1824.33 571.059 1810.38C549.9 1826.76 517.066 1840.78 518.12 1872.31ZM1993.78 1820.76C1992.32 1849.05 2019.88 1864.61 2039.99 1878.72C2039.66 1870.29 2042.42 1860.23 2035.93 1853.51C2024.34 1839.81 2008.69 1830.57 1993.86 1820.84L1993.78 1820.76ZM572.032 1885.52C588.003 1878.47 601.137 1866.64 613.946 1855.05C622.539 1847.75 625.701 1836.57 628.944 1826.35C602.677 1836.08 575.518 1855.61 572.032 1885.52ZM275.798 1854.48C266.07 1861.29 260.152 1874.58 266.313 1885.69C280.095 1877.01 294.445 1868.91 306.767 1858.21C315.929 1850.75 318.199 1838.51 321.036 1827.73C305.065 1835.03 289.986 1844.19 275.717 1854.4L275.798 1854.48ZM1937.92 1838.43C1941.73 1848.48 1944.08 1860.23 1953 1867.29C1965.08 1877.66 1977.81 1887.39 1991.02 1896.47C1986.97 1881.96 1982.02 1866.88 1970.1 1856.91C1960.78 1848.89 1951.3 1837.94 1937.84 1838.43H1937.92ZM332.629 1870.45C320.631 1879.45 315.766 1894.52 314.794 1909.03C329.305 1900.03 344.141 1891.52 357.842 1881.31C370.327 1872.23 378.353 1856.67 377.056 1841.1C361.734 1850.18 346.573 1859.59 332.548 1870.45H332.629ZM628.133 1897.52C644.753 1888.04 660.643 1876.69 673.533 1862.5C679.614 1856.1 677.344 1846.62 677.911 1838.67C655.941 1852.45 630.971 1869.23 628.052 1897.52H628.133ZM1896.57 1878.72C1907.35 1891.52 1921.3 1901.41 1936.78 1907.57C1933.46 1896.87 1931.19 1884.8 1922.68 1876.77C1912.95 1867.12 1901.44 1859.75 1890.33 1851.97C1886.28 1861.37 1890.57 1871.18 1896.57 1878.72ZM2183.65 1866.72C2192.16 1883.34 2208.78 1894.44 2225.23 1902.3C2226.45 1900.84 2228.88 1898.01 2230.1 1896.55C2226.13 1873.29 2200.99 1863.88 2184.37 1850.83C2181.46 1855.7 2180 1861.69 2183.65 1866.64V1866.72ZM382.326 1892.17C373.489 1901.33 369.435 1914.14 370.895 1926.78C387.352 1916.81 404.134 1906.92 418.24 1893.71C428.05 1884.63 429.996 1870.69 433.725 1858.61C415.241 1867.29 396.837 1877.5 382.326 1892.25V1892.17ZM1832.2 1861.05C1835.28 1888.85 1857.9 1909.52 1881.41 1921.92C1880.68 1913.49 1880.68 1904.09 1874.44 1897.6C1862.12 1883.58 1847.69 1871.5 1832.2 1861.05ZM2136.06 1894.04C2147.81 1907.09 2162.4 1917.62 2178.78 1924.19C2177.65 1895.58 2149.6 1881.96 2128.84 1868.1C2128.84 1877.18 2129.57 1886.98 2136.14 1893.95L2136.06 1894.04ZM441.427 1906.52C431.131 1914.71 427.726 1928.24 428.455 1940.89C452.209 1925.49 484.881 1909.52 485.286 1876.85C469.883 1885.52 455.371 1895.66 441.427 1906.52ZM1784.29 1877.18C1785.02 1884.88 1782.59 1894.04 1788.34 1900.36C1799.77 1914.71 1813.64 1927.51 1830.26 1935.54C1825.47 1909.6 1805.37 1890.96 1784.29 1877.18ZM191.728 1908.87C184.512 1914.95 184.026 1924.6 183.62 1933.35C200.564 1926.95 217.67 1918.68 230.804 1905.95C234.29 1899.14 241.505 1888.12 232.101 1883.09C217.751 1890.06 203.645 1898.17 191.728 1908.87ZM2073.79 1884.39C2072.5 1913.25 2099.57 1930.19 2122.6 1940.64C2122.27 1934 2122.84 1927.27 2121.22 1920.79C2108.25 1905.47 2090.74 1894.85 2073.87 1884.39H2073.79ZM511.391 1910.73C496.231 1921.35 481.314 1936.75 483.584 1956.86C501.987 1945.51 520.714 1933.27 534.091 1916.08C540.09 1909.11 539.604 1899.71 540.009 1891.12C530.118 1897.12 520.552 1903.6 511.391 1910.73ZM284.473 1903.2C270.934 1910.33 257.476 1918.19 246.451 1928.89C241.505 1934.89 234.776 1945.43 243.775 1950.94C259.584 1944.94 275.798 1936.83 286.824 1923.7C291.04 1917.71 297.039 1899.47 284.473 1903.11V1903.2ZM2251.5 1903.93C2257.18 1925.49 2276.63 1943.08 2299.33 1943.48C2299.09 1940.08 2298.6 1933.35 2298.36 1929.86C2283.93 1919.73 2270.23 1904.65 2251.58 1903.93H2251.5ZM547.63 1944.21C540.658 1951.51 538.955 1961.56 538.874 1971.28C555.413 1962.85 569.6 1950.53 582.896 1937.73C591.165 1929.94 593.516 1918.35 596.029 1907.82C576.167 1913.98 561.007 1928.97 547.711 1944.21H547.63ZM2026.37 1927.11C2039.66 1941.62 2056.2 1952.97 2073.55 1962.13C2070.55 1951.75 2067.88 1940.64 2060.58 1932.3C2051.17 1920.95 2038.37 1913.17 2025.72 1905.95C2025.64 1913 2024.99 1920.14 2026.29 1927.19L2026.37 1927.11ZM1969.94 1918.76C1970.83 1926.54 1969.13 1935.46 1974.16 1942.27C1984.29 1956.37 1998.56 1966.75 2012.91 1976.31C2015.02 1970.96 2017.04 1964.96 2013.96 1959.61C2005.86 1940.48 1985.99 1930.51 1970.02 1918.76H1969.94ZM292.904 1965.29C294.526 1967.23 297.931 1971.04 299.633 1972.99C316.739 1963.99 335.872 1954.42 344.547 1936.02C348.195 1930.76 345.276 1924.84 343.736 1919.49C325.414 1932.62 298.985 1940.97 292.904 1965.29ZM604.299 1956.29C597.083 1963.67 597.245 1974.12 597.894 1983.69C612.325 1974.45 626.026 1963.83 637.862 1951.34C645.726 1943.24 647.834 1931.65 651.077 1921.27C633.241 1929.3 616.946 1941.21 604.38 1956.29H604.299ZM124.682 1943.08C124.925 1946.72 125.249 1953.94 125.492 1957.59C137.653 1956.45 150.219 1953.53 159.704 1945.35C164.001 1939.02 163.92 1931.16 165.217 1923.95C150.3 1926.7 137.005 1934.48 124.763 1943.08H124.682ZM2205.13 1925.24C2204.97 1931.81 2204.89 1938.46 2204.8 1945.02C2217.05 1953.21 2229.61 1961.23 2243.64 1966.26C2243.07 1960.26 2244.37 1953.94 2241.94 1948.35C2232.53 1936.75 2218.34 1931.16 2205.13 1925.24ZM355.572 1965.69C345.357 1973.88 345.844 1987.5 346.33 1999.25C361.409 1991.31 375.921 1982.15 389.136 1971.2C400.161 1961.96 402.594 1946.97 405.755 1933.84C387.92 1942.51 371.057 1953.29 355.572 1965.69ZM1914 1932.46C1914.57 1960.42 1937.51 1980.28 1960.62 1992.12C1959.73 1983.93 1963.29 1973.8 1956.97 1967.15C1944.73 1953.21 1929.16 1942.83 1914 1932.46ZM2318.95 1940.64C2318.79 1945.75 2318.63 1950.78 2318.47 1955.88C2326.33 1955.88 2334.19 1955.72 2342.06 1955.48C2336.14 1947.94 2328.76 1941.62 2318.95 1940.64ZM82.5248 1962.94C89.9833 1963.26 97.4419 1963.5 104.981 1963.67C104.738 1958.64 104.576 1953.61 104.495 1948.67C94.2801 1948.1 86.6594 1953.94 82.5248 1962.94ZM176.486 1967.56C176.81 1972.58 177.135 1977.61 177.297 1982.63C194.241 1979.63 214.752 1973.96 219.859 1955.07C218.319 1953.05 215.238 1948.91 213.617 1946.89C199.997 1951.26 187.674 1958.72 176.486 1967.56ZM409.89 1985.47C401.459 1993.58 401.377 2005.82 401.053 2016.76C417.511 2009.54 433.401 2000.22 446.129 1987.5C455.371 1977.93 457.154 1964.15 457.235 1951.43C441.346 1962.53 423.672 1971.53 409.89 1985.47ZM1863.25 1948.02C1864.06 1957.99 1862.36 1969.83 1870.3 1977.61C1883.11 1990.98 1896.82 2003.71 1912.22 2014.16C1912.95 1983.36 1885.55 1964.15 1863.25 1948.1V1948.02ZM2152.11 1948.02C2149.92 1970.47 2172.78 1981.26 2190.46 1987.5C2198.56 1983.2 2193.05 1974.37 2189.32 1969.02C2179.19 1958.88 2167.43 1947.86 2152.11 1948.02ZM466.721 2001.36C456.263 2010.36 455.857 2025.19 452.371 2037.67C468.829 2031.43 482.854 2020.65 496.15 2009.38C508.959 1998.76 513.256 1981.5 515.607 1965.69C498.825 1976.88 481.962 1988.15 466.721 2001.36ZM1808.93 1963.99C1811.04 1974.28 1811.61 1985.88 1819.07 1994.14C1830.42 2006.87 1843.55 2017.97 1857.41 2027.94C1859.12 1997.79 1833.17 1976.55 1808.93 1963.99ZM2268.28 1979.07C2275.66 1983.28 2284.01 1978.82 2291.31 1976.47C2285.71 1970.07 2278.82 1965.04 2271.36 1961.15C2269.09 1966.83 2265.12 1972.91 2268.36 1979.15L2268.28 1979.07ZM2102.17 1984.98C2111.9 1996.74 2125.11 2006.3 2140.19 2009.71C2139.62 2002.98 2140.19 1996.09 2138.33 1989.52C2128.92 1978.82 2115.71 1972.5 2104.03 1964.64C2101.68 1971.12 2099.41 1978.26 2102.17 1984.98ZM227.399 2000.38C236.155 2010.52 250.18 2002.25 259.017 1996.49C268.016 1991.47 271.096 1981.17 271.745 1971.53C253.99 1973.07 232.02 1981.09 227.399 2000.38ZM132.951 1985.88C141.869 1991.23 151.678 1989.44 160.921 1986.28C159.38 1982.8 157.84 1979.39 156.218 1976.07C147.22 1975.82 139.193 1979.55 132.951 1985.96V1985.88ZM2054.82 2009.87C2065.12 2019.43 2076.63 2029.16 2091.31 2030.62C2091.06 2003.95 2063.66 1992.68 2045.99 1978.09C2039.26 1989.44 2046.88 2001.6 2054.82 2009.95V2009.87ZM2214.7 1982.47C2214.94 1988.71 2215.34 1995.04 2215.59 2001.36C2222.4 2003.71 2229.69 2004.44 2236.83 2003.38C2236.42 1999.33 2236.02 1995.28 2235.69 1991.23C2228.56 1988.55 2221.59 1985.63 2214.7 1982.47ZM520.876 2020.65C511.715 2027.94 515.282 2040.75 514.877 2050.88C530.848 2041.48 546.576 2030.78 558.25 2016.19C565.222 2008.17 563.763 1997.06 563.682 1987.33C548.765 1997.55 534.01 2008.25 520.876 2020.73V2020.65ZM285.527 2009.38C279.852 2014.16 280.825 2022.27 279.528 2028.92C296.228 2031.43 309.605 2019.35 322.495 2010.76C322.414 2003.63 322.333 1996.41 322.252 1989.28C309.443 1994.79 296.147 2000.06 285.527 2009.38ZM184.512 2011C192.538 2011.57 200.564 2011.9 208.59 2012.14C208.266 2006.79 208.023 2001.52 207.861 1996.25C198.781 1998.76 190.593 2003.63 184.512 2011ZM1994.59 1997.87C1994.34 2005.65 1993.61 2013.52 1994.75 2021.3C2003.91 2035.08 2018.99 2043.67 2033.1 2051.61C2033.83 2048.86 2035.28 2043.35 2036.1 2040.67C2031.31 2019.68 2009.83 2010.27 1994.59 1997.87ZM565.709 2056.32C562.709 2061.42 564.817 2067.02 566.438 2072.2C582.166 2060.85 598.218 2049.43 611.271 2034.92C618.891 2026.57 619.378 2015.06 619.216 2004.44C598.705 2018.14 573.897 2031.27 565.709 2056.32ZM2163.3 2005.49C2163.54 2011.33 2163.54 2017.25 2164.59 2023C2169.21 2028.03 2176.51 2028.35 2182.83 2029.65C2184.62 2026.89 2188.1 2021.3 2189.81 2018.54C2181.29 2013.52 2172.46 2009.14 2163.3 2005.41V2005.49ZM339.196 2032.32C332.548 2038.08 335.71 2047.97 338.628 2054.86C351.843 2047.97 366.76 2042.37 376.327 2030.38C378.11 2023.41 377.38 2016.19 377.624 2009.14C363.76 2014.65 350.059 2021.87 339.196 2032.32ZM236.803 2036.86C245.478 2038.32 254.314 2038.73 263.07 2039.05L263.557 2020.81C251.801 2020.16 242.478 2026.97 236.803 2036.78V2036.86ZM1945.7 2042.86C1955.67 2055.1 1968.24 2067.83 1985.1 2068.31C1983.97 2044.72 1962.89 2029.65 1943.51 2020.41C1934.51 2026.08 1941.81 2036.21 1945.7 2042.86ZM392.865 2051.13C383.866 2058.34 388.244 2071.23 387.758 2081.2C400.242 2073.82 413.862 2068.23 425.293 2059.23C434.536 2051.45 435.427 2038.48 435.995 2027.3C419.456 2030.38 405.431 2040.43 392.865 2051.05V2051.13ZM2108.17 2041C2114.09 2048.45 2123.65 2049.91 2132.57 2050.48L2138.16 2040.51C2129.73 2035.32 2121.06 2030.54 2112.06 2026.32C2110.36 2031.11 2109.06 2035.97 2108.17 2041ZM1886.92 2034.35C1883.84 2061.99 1909.06 2079.17 1929.24 2092.31C1929.24 2084.28 1929.81 2076.34 1928.76 2068.47C1917.65 2054.05 1902.65 2043.18 1886.92 2034.35ZM287.635 2058.67C296.228 2061.42 309.524 2068.8 315.604 2058.34C314.875 2053.15 313.496 2048.13 311.307 2043.26C303.2 2047.97 295.174 2053.07 287.635 2058.67ZM1832.53 2046.35C1828.63 2077.15 1855.96 2097.33 1877.36 2114.03C1880.93 2104.79 1881.57 2094.41 1875.01 2086.31C1863.09 2070.82 1848.17 2057.77 1832.44 2046.35H1832.53ZM2059.61 2046.59C2059.61 2054.37 2059.85 2062.23 2060.09 2070.1C2070.39 2074.39 2082.63 2076.01 2090.58 2066.45C2080.6 2059.31 2070.31 2052.67 2059.69 2046.59H2059.61ZM442.805 2078.36C443.048 2085.01 437.454 2097.57 447.588 2098.38C460.316 2092.47 472.72 2084.85 482.611 2074.8C486.097 2067.34 483.908 2058.5 484.638 2050.56C469.153 2056.64 453.101 2064.83 442.886 2078.36H442.805ZM342.682 2086.87C350.789 2087.85 358.977 2087.44 367.165 2087.52C368.463 2081.36 369.517 2075.12 369.841 2068.88C359.22 2068.88 340.007 2072.61 342.682 2086.87ZM499.392 2095.87C492.177 2103.65 489.177 2114.92 494.123 2124.81C510.175 2116.3 526.957 2106.98 537.577 2091.82C541.144 2084.6 538.874 2075.85 539.523 2068.15C525.011 2075.53 510.58 2083.88 499.311 2095.87H499.392ZM2009.34 2092.63C2019.07 2097.25 2030.1 2094.33 2039.34 2090.04C2031.56 2081.69 2021.99 2075.53 2011.86 2070.58C2007.72 2077.15 2007.15 2085.25 2009.34 2092.63ZM554.764 2113.14C546.414 2121.24 544.225 2134.29 549.413 2144.83C564.979 2135.91 580.707 2125.78 591.084 2110.79C596.435 2103.57 594.327 2094.09 595.138 2085.82C580.383 2092.71 566.601 2101.95 554.683 2113.14H554.764ZM1953.16 2088.66C1954.21 2099.03 1954.54 2112.16 1964.83 2118C1972.29 2120.27 1979.59 2116.87 1986.24 2113.87C1978.62 2101.55 1966.54 2093.44 1953.16 2088.66ZM390.514 2106.57C396.189 2109.9 401.621 2116.22 408.836 2114.84C415.322 2113.95 418.808 2107.63 423.267 2103.65C422.132 2100.9 419.862 2095.55 418.727 2092.79C407.377 2092.55 397.973 2098.55 390.433 2106.57H390.514ZM440.292 2130.73C444.021 2133.56 447.993 2136.24 452.047 2138.67C460.397 2141.26 467.856 2135.67 474.747 2131.86C474.179 2125.13 473.936 2118.32 473.612 2111.6C461.938 2116.95 450.669 2123.11 440.211 2130.65L440.292 2130.73ZM1912.71 2143.05C1921.95 2142.8 1934.11 2144.51 1938.4 2133.81C1927.7 2124.89 1916.27 2116.79 1904.68 2109.08C1896.49 2121.08 1906.46 2133 1912.71 2143.05ZM1849.96 2126.84C1849.88 2135.91 1848.5 2145.32 1850.93 2154.31C1857.82 2161.45 1867.39 2164.93 1876.39 2168.66C1879.47 2163.8 1882.63 2158.94 1885.79 2154.07C1874.93 2143.62 1862.77 2134.7 1850.04 2126.84H1849.96ZM492.015 2155.13C501.257 2162.26 515.607 2168.66 524.93 2157.8C525.741 2150.1 529.551 2140.05 521.687 2134.86C510.986 2140.37 501.5 2147.75 492.015 2155.13ZM544.468 2178.55C549.008 2183.09 553.548 2187.71 558.169 2192.25C565.465 2188.2 574.545 2185.6 579.085 2178.15C581.355 2171.9 580.545 2165.18 581.031 2158.77C566.033 2158.61 554.683 2169.23 544.387 2178.63L544.468 2178.55Z" fill="url(#paint0_linear_611_192)"/>
<defs>
<linearGradient id="paint0_linear_611_192" x1="0.399734" y1="1119.52" x2="2422.4" y2="1119.52" gradientUnits="userSpaceOnUse">
<stop stop-color="#60FDFF"/>
<stop offset="1" stop-color="#FD9B95"/>
</linearGradient>
</defs>
</svg>
